<svg xmlns="http://www.w3.org/2000/svg" viewBox="0 0 512 512">
  <defs>
    <linearGradient id="grad" x1="0%" y1="0%" x2="100%" y2="100%">
      <stop offset="0%" style="stop-color:#0077B6;stop-opacity:1" />
      <stop offset="100%" style="stop-color:#00B4D8;stop-opacity:1" />
    </linearGradient>
  </defs>
  <rect width="512" height="512" rx="100" fill="url(#grad)"/>
  <g fill="white">
    <circle cx="256" cy="200" r="80" opacity="0.9"/>
    <path d="M256 300 C150 300 120 380 120 420 L120 450 C120 470 140 490 160 490 L352 490 C372 490 392 470 392 450 L392 420 C392 380 362 300 256 300Z" opacity="0.9"/>
    <circle cx="180" cy="150" r="15"/>
    <circle cx="332" cy="150" r="15"/>
    <path d="M200 100 Q180 60 200 40" stroke="white" stroke-width="8" fill="none" stroke-linecap="round"/>
    <path d="M256 90 Q256 50 256 30" stroke="white" stroke-width="8" fill="none" stroke-linecap="round"/>
    <path d="M312 100 Q332 60 312 40" stroke="white" stroke-width="8" fill="none" stroke-linecap="round"/>
  </g>
  <text x="256" y="530" text-anchor="middle" font-family="Arial, sans-serif" font-size="60" font-weight="bold" fill="white" opacity="0">MC</text>
</svg>
